<svg data-v-0dd9719b="" version="1.0" xmlns="http://www.w3.org/2000/svg" xmlns:xlink="http://www.w3.org/1999/xlink" width="100%" height="100%" viewBox="0 0 340.000000 250.000000" preserveAspectRatio="xMidYMid meet" color-interpolation-filters="sRGB" style="margin: auto;"> <rect data-v-0dd9719b="" x="0" y="0" width="100%" height="100%" fill="#fff" fill-opacity="1" class="background"></rect> <rect data-v-0dd9719b="" x="0" y="0" width="100%" height="100%" fill="url(#watermark)" fill-opacity="1" class="watermarklayer"></rect> <g data-v-0dd9719b="" fill="#333" class="icon-text-wrapper icon-svg-group iconsvg" transform="translate(47.49500274658203,94.92963409423828)"><g class="iconsvg-imagesvg" transform="translate(0,0)"><g><rect fill="#333" fill-opacity="0" stroke-width="2" x="0" y="0" width="60" height="60.14072930657739" class="image-rect"></rect> <svg x="0" y="0" width="60" height="60.14072930657739" filtersec="colorsb6425938300" class="image-svg-svg primary" style="overflow: visible;"><svg xmlns="http://www.w3.org/2000/svg" viewBox="0.0002338886260986328 -0.0000019073486328125 108.13935089111328 108.39342498779297"><path d="M41.74 0a341.68 341.68 0 0 1 24.78 26.55c4.78 5.59-1.74 6.31-3.56 8.86-2.58 3.61-3.7-.25-4.85-1.59-8.78-10.22-17.8-20.16-29-28.4C32.08 2 36.68 2.45 39.76 0z" fill="#e42c37"></path><path d="M68.45 0c.06.15.09.39.2.44 8.68 3.82 8.68 3.82 3.44 11.79l-.81 1.23c-5.69 8.46-5.63 8.42-12 .79-1.28-1.64-1.62-2.68-.28-4.56 2.15-3 4.64-5.91 5.48-9.69z" fill="#e96b11"></path><path d="M51.1 63.64c-.86.9-1.47 1.65-2.19 2.28-10.18 8.94-19.73 18.43-26.41 30.39-1.09 2-2.15 2.27-3.74.69-.12-.11-.25-.21-.38-.31-7.14-5.47-7.23-6.22-2-13.51 7-9.67 15.73-17.66 24.65-25.48 2.33-2 3.84-2.33 5.63.49a57.74 57.74 0 0 0 4.44 5.45z" fill="#167497"></path><path d="M96 18.88c-.41.64-.94 1.46-1.46 2.29C87 33 76.86 42.32 66.34 51.34c-1.86 1.59-3 1.42-4.31-.51a19.32 19.32 0 0 0-2.86-3.39c-2.37-2.17-1.61-3.62.59-5.48 10.25-8.64 19.39-18.29 26.12-30 .39-.68.6-1.6 1.58-1.73 1.26-.17 8.61 7.06 8.54 8.65z" fill="#e96b11"></path><path d="M79.31 103.19a8.43 8.43 0 0 1-1.08.9c-10 5.25-11.08 5.16-19-2.7-6.29-6.27-12.06-13-17.8-19.79-1.75-2.07-2.11-3.43.13-5.18A34.72 34.72 0 0 0 45.12 73c1.35-1.44 2.36-1.72 3.84.09 9.04 11.03 18.65 21.58 30.35 30.1z" fill="#1d96db"></path><path d="M4.15 31.67c1.07.53 1.82.86 2.53 1.26 10.78 5.93 19.62 14.18 27.83 23.21 1.41 1.56 1.62 2.67-.11 4a19.7 19.7 0 0 0-3.29 3c-2.2 2.66-3.84 2.32-6.12-.18A88.26 88.26 0 0 0 2.47 44.79c-4.88-2.69-1.1-5.93-.65-8.88.24-1.58.66-3.45 2.33-4.24z" fill="#e96b11"></path><path d="M107.94 67.21c-.12.53-.16.69-.19.85C106 77.26 105 77.7 97 72.63c-8.62-5.44-15.72-12.52-22.7-19.78-2-2.09-1.89-3.44.32-5.06a25.82 25.82 0 0 0 3.25-3c1.58-1.65 2.89-1.61 4.49.13A93.18 93.18 0 0 0 106.12 64c1.57.87 2.19 1.89 1.82 3.21z" fill="#1d96db"></path><path d="M82.46 65.82c-.8.73-1.62 1.52-2.47 2.26-5.18 4.53-10.48 8.92-15.5 13.62-2 1.91-3.09 1.83-4.94-.25-5.33-6-5.46-5.94.59-11.22 3.46-3 7.37-5.59 10.43-9 3.58-3.94 6.09-3 8.79.64.95 1.34 2.64 2.13 3.1 3.95z" fill="#0c4376"></path><path d="M38.81 27.46c-3.11 2.79-5.52 4.91-7.88 7.07-1.79 1.63-2.65-.22-3.61-1a90.1 90.1 0 0 0-15.19-10.89c-1.8-1-2.57-2-.79-3.65a7.53 7.53 0 0 0 .65-.73c5.81-7 5.88-7 13.17-1.53 3.66 2.76 7.07 5.85 10.62 8.76.76.62 1.65 1.08 3.03 1.97z" fill="#e96b11"></path><path d="M53.72 33c-.67.71-1.15 1.34-1.74 1.85-5.62 4.81-11.28 9.55-16.85 14.41-1.44 1.25-2.29 1-3.67-.17-6.75-5.8-6.78-5.72-.15-11.4 4-3.41 8.17-6.67 11.81-10.43 2.55-2.64 4.07-2.38 6 .36 1.34 1.83 2.97 3.46 4.6 5.38z" fill="#e42c37"></path><path d="M98.13 87.86a37.71 37.71 0 0 1-6.91 7.55c-2 1.74-3.34-.29-4.7-1.18a103 103 0 0 1-14.24-11.36c-2-1.88-2.2-3 0-4.93 5.9-5.13 5.72-5.15 12.06-.23 3.66 2.81 7.6 5.29 11.38 7.85.89.61 2.18.81 2.41 2.3zM50.46 39.86a9.4 9.4 0 0 0 1 2.39c4.59 5.56 9.19 11.11 13.91 16.57 1.25 1.44 1.4 2.44-.22 3.55-.4.27-.73.65-1.11 1-6.86 5.66-4.85 5.49-10.21-.63-3.45-4-6.65-8.13-10.18-12-2.08-2.29-2.48-3.88.48-5.69 1.95-1.22 3.57-2.9 6.33-5.19z" fill="#167497"></path><path d="M4.73 79.55C-1.46 67.42-.39 63.47 10.36 55.7c2.58-1.86 3.55.25 4.9 1.39 5.4 4.57 5.33 4.57.76 9.6C12.29 70.81 8.68 75 4.73 79.55z" fill="#0c4376"></path><path d="M108.11 40.5c.21 1.41-.74 2.2-1.52 3-2.62 2.71-5.43 5.24-7.86 8.11-2.09 2.47-3.53 1.77-5.6 0-5.66-4.92-5.66-4.76-.66-10.07 3-3.21 5.91-6.59 8.62-10.08 1.68-2.16 2.77-2.67 3.84.3s2.12 5.82 3.18 8.74z" fill="#e42c37"></path><path d="M50.66 96.27c-2.61 4.12-4.34 8.93-7.75 11.51-2.5 1.9-6.72-1.11-10-2.32-1.44-.53-1.2-1.63-.58-2.81a87.23 87.23 0 0 1 8.93-13.48c.5-.63 1.35-1.67 1.92-1.1 2.59 2.64 5.03 5.49 7.48 8.2z" fill="#0c4376"></path></svg></svg> <!----></g></g> <g transform="translate(67,1.4041175842285156)"><g data-gra="path-name" fill-rule="" class="tp-name iconsvg-namesvg" transform="translate(0,0)"><g transform="scale(1)"><g><path d="M5.85-29.7L6.12-33.3 5.58-34.88 24.57-34.88 24.03-29.74Q16.06-29.92 5.85-29.7L5.85-29.7ZM35.73 0.54L39.46 0.54Q40.5 0.54 41.35-0.04L41.35-0.04 40.32 3.92 32.94 3.92Q30.82 3.92 30.06 3.19L30.06 3.19Q29.38 2.52 29.2 0.45L29.2 0.45 27.09-21.33 19.8-21.33 19.8-16.52 26.55-16.52 26.23-11.07Q23.63-11.21 19.8-11.12L19.8-11.12 19.8-5.8 27-6.84 27.09-1.21 2.11 2.79 2.25-0.77 1.13-3.19 5.08-3.73 5.08-16.56Q5.08-18.13 4.77-19.21L4.77-19.21Q8.55-18.5 10.8-18.63L10.8-18.63 10.8-4.54 13.81-5 13.81-19.39Q13.81-20.47 13.68-21.29L13.68-21.29Q5.76-21.2 1.93-21.11L1.93-21.11 2.07-24.66 1.4-26.73 26.55-26.73 25.43-37.84 29.65-37.84Q31-37.84 31.5-37.39L31.5-37.39Q31.99-36.99 32.13-35.64L32.13-35.64 32.27-34.16 36-37.13 41.63-31.14 37.3-27.58 32.4-32.85 32.98-26.73 41.98-26.73 40.86-21.2Q36.18-21.29 33.52-21.29L33.52-21.29 35.73 0.54ZM58.32-21.6L54.72-16.02 45.54-21.33 49.19-26.68 58.32-21.6ZM55.94-15.88L60.98-12.42 51.52 2.79 49.05-0.72 46.35-1.84 55.94-15.88ZM77.4-14.94L88.65-1.4 86.17-0.54 84.28 4.18 73.75-8.69Q70.06-2.43 66.02 3.92L66.02 3.92 61.97 2.52 58.77 2.52Q63.63-4.86 69.16-14.26L69.16-14.26 60.39-25.02 66.11-28.57 72.81-20.52 77.81-29.34 61.25-29.34 61.42-31.5 57.64-26.23 49.41-31.95 53.33-37.08 61.47-31.63 61.61-33.25 61.25-35.01 85-35.05Q86.44-35.05 86.98-34.16L86.98-34.16Q87.57-33.25 86.94-31.99L86.94-31.99Q79.06-17.82 77.4-14.94L77.4-14.94ZM91.67-0.45L99.99-14.76 104.98-11.61 96.8 3.73 94.28 0.49 91.67-0.45ZM103.86-21.91L100.66-16.43 90.94-21.6 94.23-26.86 103.86-21.91ZM93.11-31.86L96.57-37.08 105.48-31.77 102.11-26.37 93.11-31.86ZM112.63-3.78L133.25-3.78 132.3 2.25 106.2 2.25 106.2-30.78Q106.2-34.11 105.75-36.13L105.75-36.13Q108.31-35.37 109.94-35.14L109.94-35.14 131.72-35.14 131-29.2Q122.22-29.43 112.63-29.2L112.63-29.2 112.63-3.78ZM154.8-32.4L154.31-33.88 158.35-33.88 158-37.75 162.9-38.16 163.35-33.88 168.3-33.88 169.02-38.2 173.93-37.53 173.25-33.88 177.62-33.88 177.03-29.34Q175.55-29.38 172.35-29.38L172.35-29.38 171.76-26.23 167.18-26.82 167.58-29.43 163.8-29.43 164.12-26.55 159.07-26.01 158.76-29.34 154.57-29.29 154.8-32.4ZM171.18-10.75L179.14-2.16 177.21-1.4 175.55 1.89 167.94-6.48 167.94 3.73 162.68 3.73 162.68-5.98Q159.93-2.38 156.01 2.02L156.01 2.02 154.22-0.58 152.5-1.13 149.63-1.13 149.63-2.79 137.56-0.63 137.56-3.82 137.47-3.82 137.47-26.23Q137.47-28.3 137.21-29.43L137.21-29.43Q140.18-28.71 141.75-28.84L141.75-28.84 141.75-6.88 143.41-7.02 143.41-32.27Q143.41-34.96 143.1-36.27L143.1-36.27Q146.38-35.28 147.96-35.55L147.96-35.55 147.96-7.42 149.63-7.6 149.63-26.64Q149.63-28.71 149.31-30.29L149.31-30.29Q152.37-29.38 154.03-29.61L154.03-29.61 154.03-2.97Q157.14-6.75 159.88-10.75L159.88-10.75 157.37-10.71Q155.75-10.71 154.94-10.66L154.94-10.66 155.16-13.99 154.66-15.52 162.68-15.52 162.68-17.32Q162.68-19.44 162.36-20.52L162.36-20.52 159.66-20.47 159.66-17.19 155.07-17.19 155.07-24.34Q155.07-25.15 154.84-25.7L154.84-25.7Q158.04-25.24 159.66-25.38L159.66-25.38 159.66-25.33 175.28-25.33Q176.49-25.33 176.49-24.25L176.49-24.25 176.49-16.88 171.68-16.88 171.68-20.47Q168.8-20.52 162.63-20.52L162.63-20.52Q166.14-19.71 167.94-19.93L167.94-19.93 167.94-15.52 176.49-15.52 175.95-10.71Q174.42-10.75 171.18-10.75L171.18-10.75Z" transform="translate(-1.1299999952316284, 38.20000076293945)"></path></g> <!----> <!----> <!----> <!----> <!----> <!----> <!----></g></g> <g data-gra="path-slogan" fill-rule="" class="tp-slogan iconsvg-slogansvg" fill="#333" transform="translate(37.06999969482422,48.380001068115234)"><!----> <!----> <g transform="scale(1, 1)"><g transform="scale(1)"><path d="M5.67-7.13L5.63-7.13L3.66 0L2.44 0L0.19-8.58L1.41-8.58L3.05-1.59L3.09-1.59L5.02-8.58L6.28-8.58L8.20-1.59L8.25-1.59L9.84-8.58L11.11-8.58L8.86 0L7.64 0L5.67-7.13ZM17.86-3.19L17.86-8.58L19.03-8.58L19.03-3.05Q18.89 0.05 15.52 0.14L15.52 0.14Q12.38 0.05 12.23-2.86L12.23-2.86L12.23-8.58L13.41-8.58L13.41-3.19Q13.45-0.84 15.56-0.80L15.56-0.80Q17.86-0.84 17.86-3.19L17.86-3.19ZM21.98-5.06L26.48-5.06L26.48-8.58L27.66-8.58L27.66 0L26.48 0L26.48-3.98L21.98-3.98L21.98 0L20.81 0L20.81-8.58L21.98-8.58L21.98-5.06ZM35.11 0L34.27-2.48L30.80-2.48L29.91 0L28.73 0L31.97-8.58L33.28-8.58L36.38 0L35.11 0ZM32.53-7.31L31.17-3.52L33.84-3.52L32.58-7.31L32.53-7.31ZM38.81-8.58L43.13-1.64L43.13-8.58L44.25-8.58L44.25 0L42.94 0L38.58-6.94L38.53-6.94L38.53 0L37.41 0L37.41-8.58L38.81-8.58ZM50.53-5.06L55.03-5.06L55.03-8.58L56.20-8.58L56.20 0L55.03 0L55.03-3.98L50.53-3.98L50.53 0L49.36 0L49.36-8.58L50.53-8.58L50.53-5.06ZM63.66-3.19L63.66-8.58L64.83-8.58L64.83-3.05Q64.69 0.05 61.31 0.14L61.31 0.14Q58.17 0.05 58.03-2.86L58.03-2.86L58.03-8.58L59.20-8.58L59.20-3.19Q59.25-0.84 61.36-0.80L61.36-0.80Q63.66-0.84 63.66-3.19L63.66-3.19ZM66.80-8.58L67.97-8.58L67.97 0L66.80 0L66.80-8.58ZM74.06-3.70L71.25-3.70L71.25 0L70.08 0L70.08-8.58L74.06-8.58Q76.92-8.58 76.92-6.28L76.92-6.28Q76.92-4.88 75.70-4.22L75.70-4.22Q76.73-3.94 76.73-2.58L76.73-2.58L76.83-1.03Q76.78-0.38 77.25-0.19L77.25-0.19L77.25 0L75.80 0Q75.66-0.61 75.61-2.16L75.61-2.16Q75.66-3.70 74.06-3.70L74.06-3.70ZM74.16-7.64L71.25-7.64L71.25-4.69L73.97-4.69Q75.70-4.69 75.70-6.19L75.70-6.19Q75.70-7.64 74.16-7.64L74.16-7.64ZM85.36-4.27L85.36-4.27Q85.17-7.64 82.36-7.83L82.36-7.83Q79.50-7.69 79.36-4.27L79.36-4.27Q79.50-0.94 82.36-0.80L82.36-0.80Q85.17-0.98 85.36-4.27ZM86.53-4.27L86.53-4.27Q86.25 0 82.36 0.14L82.36 0.14Q78.42 0 78.14-4.27L78.14-4.27Q78.38-8.72 82.36-8.81L82.36-8.81Q86.25-8.67 86.53-4.27ZM89.30-8.58L93.61-1.64L93.61-8.58L94.73-8.58L94.73 0L93.42 0L89.06-6.94L89.02-6.94L89.02 0L87.89 0L87.89-8.58L89.30-8.58ZM102.94-3.61L100.31-3.61L100.31-4.59L104.06-4.59L104.06 0L103.31 0L103.03-1.08Q102.05 0.09 100.22 0.14L100.22 0.14Q98.48 0.14 97.55-0.75L97.55-0.75Q96.14-2.06 96.19-4.36L96.19-4.36Q96.52-8.63 100.27-8.81L100.27-8.81Q103.45-8.63 103.92-6L103.92-6L102.80-6Q102.33-7.78 100.22-7.83L100.22-7.83Q97.55-7.64 97.41-4.31L97.41-4.31Q97.41-0.75 100.27-0.75L100.27-0.75Q101.30-0.75 102.05-1.31L102.05-1.31Q102.98-2.06 102.94-3.61L102.94-3.61Z" transform="translate(-0.1875, 8.8125)"></path></g></g></g></g></g><defs v-gra="od"></defs></svg>